<svg width="80" height="80" viewBox="0 0 80 80" fill="none" xmlns="http://www.w3.org/2000/svg">
<path d="M23.1579 11.5789H14.7368L14.7368 77.8947" stroke="#0AA6E0" stroke-width="3" stroke-linecap="round" stroke-linejoin="round"/>
<path d="M56.8421 11.5789H65.2632L65.2632 77.8947" stroke="#0AA6E0" stroke-width="3" stroke-linecap="round" stroke-linejoin="round"/>
<path d="M56.8421 77.8947L56.8421 2.10527H23.1579L23.1579 77.8947" stroke="#1D509F" stroke-width="3" stroke-linecap="round" stroke-linejoin="round"/>
<path d="M40 15.7895V11.5789M31.5789 15.7895L31.5789 11.5789M48.421 15.7895V11.5789" stroke="#1D509F" stroke-width="3" stroke-linecap="round" stroke-linejoin="round"/>
<path d="M40 28.4211V24.2105M31.5789 28.4211L31.5789 24.2105M48.421 28.4211V24.2105" stroke="#1D509F" stroke-width="3" stroke-linecap="round" stroke-linejoin="round"/>
<path d="M40 41.0526V36.8421M31.5789 41.0526L31.5789 36.8421M48.421 41.0526V36.8421" stroke="#1D509F" stroke-width="3" stroke-linecap="round" stroke-linejoin="round"/>
<path d="M40 53.6842V49.4737M31.5789 53.6842L31.5789 49.4737M48.421 53.6842V49.4737" stroke="#1D509F" stroke-width="3" stroke-linecap="round" stroke-linejoin="round"/>
<path d="M40 66.3158V62.1053M31.5789 66.3158L31.5789 62.1053M48.421 66.3158V62.1053" stroke="#1D509F" stroke-width="3" stroke-linecap="round" stroke-linejoin="round"/>
<path d="M2.10529 77.8947L77.8948 77.8947" stroke="#0AA6E0" stroke-width="3" stroke-linecap="round" stroke-linejoin="round"/>
<path d="M6.3158 72.6316V62.1053" stroke="#0AA6E0" stroke-width="3" stroke-linecap="round" stroke-linejoin="round"/>
<path d="M73.6842 72.6316V62.1053" stroke="#0AA6E0" stroke-width="3" stroke-linecap="round" stroke-linejoin="round"/>
<ellipse cx="6.31581" cy="54.7368" rx="4.21053" ry="4.21053" fill="#0AA6E0"/>
<ellipse cx="73.6842" cy="54.7368" rx="4.21053" ry="4.21053" fill="#0AA6E0"/>
</svg>
