<svg width="80" height="80" viewBox="0 0 80 80" fill="none" xmlns="http://www.w3.org/2000/svg">
<path d="M23.2 32C26.2 34 28 37 28 40C28 43 26.2 46 23.2 48" stroke="#0AA6E0" stroke-width="3" stroke-linecap="round" stroke-linejoin="round"/>
<path d="M24.8 20.8C31.5883 25.1165 36 32.1086 36 40C36 47.8914 31.5883 54.8835 24.8 59.2" stroke="#0AA6E0" stroke-width="3" stroke-linecap="round" stroke-linejoin="round"/>
<path d="M11.1407 33.4118H1.59998V46.5882H11.1407M11.1407 33.4118L20 28.8V51.2L11.1407 46.5882M11.1407 33.4118V39.3412M11.1407 46.5882V44.6118" stroke="#0AA6E0" stroke-width="3" stroke-linecap="round" stroke-linejoin="round"/>
<path d="M51 2V78" stroke="#0AA6E0" stroke-width="3" stroke-linecap="round" stroke-linejoin="round"/>
<path d="M43 2V78" stroke="#0AA6E0" stroke-width="3" stroke-linecap="round" stroke-linejoin="round"/>
<path d="M43 12L51 4M43 20L51 12M43 28L51 20M43 36L51 28M43 44L51 36M43 52L51 44M43 60L51 52M43 68L51 60M43 76L51 68" stroke="#0AA6E0" stroke-width="3" stroke-linecap="round" stroke-linejoin="round"/>
<path d="M58.6041 52.6431C65.2831 52.6431 70.6975 46.9826 70.6975 40C70.6975 33.0174 65.2831 27.3569 58.6041 27.3569" stroke="#EC6608" stroke-width="3" stroke-linecap="round" stroke-linejoin="round"/>
<path d="M58.6041 58.3899C68.4636 58.3899 76.4563 50.1565 76.4563 40C76.4563 29.8435 68.4636 21.61 58.6041 21.61" stroke="#EC6608" stroke-width="3" stroke-linecap="round" stroke-linejoin="round"/>
<path d="M58.6041 15.8632C66.0905 15.8632 73.8648 20.4607 77.608 25.6329" stroke="#EC6608" stroke-width="3" stroke-linecap="round" stroke-linejoin="round"/>
<path d="M58.6041 64.1368C66.0905 64.1368 73.8648 59.5393 77.608 54.3671" stroke="#EC6608" stroke-width="3" stroke-linecap="round" stroke-linejoin="round"/>
<path d="M58.6041 10.1163C66.0905 10.1163 72.4251 12.9898 77.608 17.2999" stroke="#EC6608" stroke-width="3" stroke-linecap="round" stroke-linejoin="round"/>
<path d="M58.6041 69.8836C66.0905 69.8836 72.4251 67.0102 77.608 62.7001" stroke="#EC6608" stroke-width="3" stroke-linecap="round" stroke-linejoin="round"/>
<path d="M58.6041 4.36948C66.0905 4.36948 72.4251 6.95557 77.608 10.1163" stroke="#EC6608" stroke-width="3" stroke-linecap="round" stroke-linejoin="round"/>
<path d="M58.6041 75.6305C66.0905 75.6305 72.4251 73.0444 77.608 69.8837" stroke="#EC6608" stroke-width="3" stroke-linecap="round" stroke-linejoin="round"/>
<path d="M58.6041 46.8963C62.1026 46.8963 64.9387 43.8087 64.9387 40C64.9387 36.1913 62.1026 33.1038 58.6041 33.1038" stroke="#EC6608" stroke-width="3" stroke-linecap="round" stroke-linejoin="round"/>
</svg>
