<svg width="80" height="80" viewBox="0 0 80 80" fill="none" xmlns="http://www.w3.org/2000/svg">
<path d="M23.2 32C26.2 34 28 37 28 40C28 43 26.2 46 23.2 48" stroke="#0AA6E0" stroke-width="3" stroke-linecap="round" stroke-linejoin="round"/>
<path d="M25.6 21.6C32.3882 25.7367 36.8 32.4374 36.8 40C36.8 47.5626 32.3882 54.2634 25.6 58.4" stroke="#0AA6E0" stroke-width="3" stroke-linecap="round" stroke-linejoin="round"/>
<path d="M11.1407 33.4118H1.59998V46.5882H11.1407M11.1407 33.4118L20 28.8V51.2L11.1407 46.5882M11.1407 33.4118V39.3412M11.1407 46.5882V44.6118" stroke="#0AA6E0" stroke-width="3" stroke-linecap="round" stroke-linejoin="round"/>
<path d="M59.1975 52.6426C65.9463 52.6426 71.4173 46.9823 71.4173 40C71.4173 33.0176 65.9463 27.3573 59.1975 27.3573" stroke="#EC6608" stroke-width="3" stroke-linecap="round" stroke-linejoin="round"/>
<path d="M59.1975 15.8641C66.7621 15.8641 74.6177 20.4614 78.4 25.6334" stroke="#EC6608" stroke-width="3" stroke-linecap="round" stroke-linejoin="round"/>
<path d="M59.1975 64.136C66.7621 64.136 74.6177 59.5386 78.4 54.3666" stroke="#EC6608" stroke-width="3" stroke-linecap="round" stroke-linejoin="round"/>
<path d="M59.1975 4.37076C66.7621 4.37076 73.163 6.95675 78.4 10.1174" stroke="#EC6608" stroke-width="3" stroke-linecap="round" stroke-linejoin="round"/>
<path d="M59.1975 75.6292C66.7621 75.6292 73.163 73.0432 78.4 69.8826" stroke="#EC6608" stroke-width="3" stroke-linecap="round" stroke-linejoin="round"/>
<path d="M51 2V78" stroke="#0AA6E0" stroke-width="3" stroke-linecap="round" stroke-linejoin="round"/>
<path d="M43 2V78" stroke="#0AA6E0" stroke-width="3" stroke-linecap="round" stroke-linejoin="round"/>
<path d="M43 12L51 4M43 20L51 12M43 28L51 20M43 36L51 28M43 44L51 36M43 52L51 44M43 60L51 52M43 68L51 60M43 76L51 68" stroke="#0AA6E0" stroke-width="3" stroke-linecap="round" stroke-linejoin="round"/>
</svg>
