<svg width="80" height="80" viewBox="0 0 80 80" fill="none" xmlns="http://www.w3.org/2000/svg">
<path d="M24 32C27 34 28.8 37 28.8 40C28.8 43 27 46 24 48" stroke="#0AA6E0" stroke-width="3" stroke-linecap="round" stroke-linejoin="round"/>
<path d="M26.4 22.4C32.7034 26.3568 36.8 32.7662 36.8 40C36.8 47.2338 32.7034 53.6432 26.4 57.6" stroke="#0AA6E0" stroke-width="3" stroke-linecap="round" stroke-linejoin="round"/>
<path d="M10.7259 33.8824H1.59998V46.1177H10.7259M10.7259 33.8824L19.2 29.6V50.4L10.7259 46.1177M10.7259 33.8824V39.3882M10.7259 46.1177V44.2824" stroke="#0AA6E0" stroke-width="3" stroke-linecap="round" stroke-linejoin="round"/>
<path d="M59.2 58.3845C69.1612 58.3845 77.2364 50.1534 77.2364 39.9999C77.2364 29.8464 69.1612 21.6154 59.2 21.6154" stroke="#EC6608" stroke-width="3" stroke-linecap="round" stroke-linejoin="round"/>
<path d="M59.2 46.8942C62.7346 46.8942 65.6 43.8076 65.6 40C65.6 36.1924 62.7346 33.1058 59.2 33.1058" stroke="#EC6608" stroke-width="3" stroke-linecap="round" stroke-linejoin="round"/>
<path d="M51 2V78" stroke="#0AA6E0" stroke-width="3" stroke-linecap="round" stroke-linejoin="round"/>
<path d="M43 2V78" stroke="#0AA6E0" stroke-width="3" stroke-linecap="round" stroke-linejoin="round"/>
<path d="M43 12L51 4M43 20L51 12M43 28L51 20M43 36L51 28M43 44L51 36M43 52L51 44M43 60L51 52M43 68L51 60M43 76L51 68" stroke="#0AA6E0" stroke-width="3" stroke-linecap="round" stroke-linejoin="round"/>
</svg>
