<svg width="80" height="80" viewBox="0 0 80 80" fill="none" xmlns="http://www.w3.org/2000/svg">
<g clip-path="url(#clip0)">
<path d="M22.7489 44.2411L25.5707 42.0912C25.7836 41.929 26.0439 41.8411 26.3115 41.8411V41.8411C26.5558 41.8411 26.7945 41.9144 26.9969 42.0514L28.5409 43.0971C28.872 43.3213 29.2626 43.4411 29.6624 43.4411L30.1989 43.4411C31.3035 43.4411 32.1989 42.5457 32.1989 41.4411L32.1989 35.0411C32.1989 33.9366 31.3035 33.0411 30.1989 33.0411L29.8866 33.0411C29.3507 33.0411 28.8372 33.2562 28.4613 33.6381L26.9923 35.1304C26.7966 35.3292 26.5293 35.4411 26.2503 35.4411V35.4411C26.0224 35.4411 25.8007 35.3663 25.6194 35.2282L23.2859 33.4503C22.9376 33.1849 22.5117 33.0411 22.0738 33.0411L10.9866 33.0411C10.4507 33.0411 9.93721 33.2562 9.56128 33.6381L5.75045 37.5094C4.48533 38.7946 5.81123 40.91 7.51935 40.3316V40.3316C7.6962 40.2717 7.88166 40.2411 8.06837 40.2411L12.1574 40.2411C12.8648 40.2411 13.5197 40.6149 13.8794 41.224L15.6614 44.2411M22.7489 44.2411L15.6614 44.2411M22.7489 44.2411L22.7489 64.2411M15.6614 44.2411L15.6614 56.2411" stroke="#0AA6E0" stroke-width="4" stroke-linecap="round" stroke-linejoin="round"/>
<path d="M23.5364 28.2411L26.6864 16.2411L31.4114 26.6411L37.7114 21.8411L37.7114 32.2411L47.9489 33.0411L39.2864 41.0411L43.2239 47.4411L33.7739 47.4411L33.7739 53.8411L28.2614 49.0411" stroke="#0AA6E0" stroke-width="4" stroke-linecap="round" stroke-linejoin="round"/>
</g>
<path d="M28.5474 64.3701C35.0233 70.3465 43.9474 76.2135 47.6 78.4C51.2526 76.2135 60.1767 70.3465 66.6526 64.3701C74.7474 56.8996 78.4 44.3274 78.4 37.8591C78.4 32.6844 78.4 18.0897 78.4 11.4391C75.5372 11.7124 68.3308 11.6942 62.4077 9.43485C56.4846 7.17549 50.0679 3.2702 47.6 1.59998C45.132 3.2702 38.7154 7.17549 32.7923 9.43485C26.8692 11.6942 19.6628 11.7124 16.8 11.4391C16.8 15.0529 16.8 21.0122 16.8 26.5313" stroke="#EC6608" stroke-width="3" stroke-linecap="round" stroke-linejoin="round"/>
<defs>
<clipPath id="clip0">
<rect width="50.4" height="51.2" fill="white" transform="translate(1.59998 14.4)"/>
</clipPath>
</defs>
</svg>
