<svg width="80" height="80" viewBox="0 0 80 80" fill="none" xmlns="http://www.w3.org/2000/svg">
<g clip-path="url(#clip0)">
<path d="M22.7489 44.1086L25.5668 42.0287C25.7825 41.8695 26.0436 41.7836 26.3117 41.7836V41.7836C26.5562 41.7836 26.7953 41.8551 26.9997 41.9892L28.5493 43.0058C28.8753 43.2197 29.2566 43.3336 29.6464 43.3336L30.1989 43.3336C31.3035 43.3336 32.1989 42.4382 32.1989 41.3336L32.1989 35.2586C32.1989 34.154 31.3035 33.2586 30.1989 33.2586L29.868 33.2586C29.3431 33.2586 28.8392 33.465 28.4651 33.8331L26.9976 35.2773C26.7982 35.4736 26.5296 35.5836 26.2498 35.5836V35.5836C26.0219 35.5836 25.8 35.5106 25.6166 35.3752L23.2785 33.6495C22.9345 33.3956 22.5182 33.2586 22.0907 33.2586L10.968 33.2586C10.4431 33.2586 9.93924 33.465 9.56513 33.8331L5.82337 37.5155C4.55395 38.7648 5.83821 40.8727 7.53051 40.3176V40.3176C7.70004 40.2619 7.87732 40.2336 8.05573 40.2336L12.1759 40.2336C12.8733 40.2336 13.5204 40.597 13.8835 41.1925L15.6614 44.1086M22.7489 44.1086L15.6614 44.1086M22.7489 44.1086L22.7489 63.4836M15.6614 44.1086L15.6614 55.7336" stroke="#0AA6E0" stroke-width="4" stroke-linecap="round" stroke-linejoin="round"/>
<path d="M23.5364 28.6086L26.6864 16.9836L31.4114 27.0586L37.7114 22.4086L37.7114 32.4836L47.9489 33.2586L39.2864 41.0086L43.2239 47.2086L33.7739 47.2086L33.7739 53.4086L28.2614 48.7586" stroke="#0AA6E0" stroke-width="4" stroke-linecap="round" stroke-linejoin="round"/>
</g>
<path d="M29.1948 64.3701C35.5866 70.3465 44.3948 76.2135 48 78.4C51.6051 76.2135 60.4133 70.3465 66.8051 64.3701C74.7949 56.8996 78.4 44.3274 78.4 37.8591C78.4 32.6844 78.4 18.0897 78.4 11.4391C75.5743 11.7124 68.4615 11.6942 62.6154 9.43485C56.7692 7.17549 50.4359 3.2702 48 1.59998C45.5641 3.2702 39.2307 7.17549 33.3846 9.43485C27.5384 11.6942 20.4256 11.7124 17.6 11.4391C17.6 15.1155 17.6 21.2195 17.6 26.8179" stroke="#EC6608" stroke-width="3" stroke-linecap="round" stroke-linejoin="round"/>
<path d="M35.5422 14.5291C40.4848 12.6463 45.8392 9.39185 47.8986 8C49.958 9.39185 55.3125 12.6463 60.2551 14.5291C65.1976 16.4119 71.2111 16.427 73.6 16.1993C73.6 21.7414 73.6 33.9037 73.6 38.2159C73.6 43.6062 70.5521 54.083 63.7972 60.3084C58.3933 65.2887 50.9465 70.1779 47.8986 72C44.8507 70.1779 37.4039 65.2887 32 60.3084" stroke="#EC6608" stroke-width="3" stroke-linecap="round" stroke-linejoin="round"/>
<path d="M47.7677 14.4C49.3889 15.5135 53.6039 18.117 57.4948 19.6233C61.3856 21.1295 66.1194 21.1417 68 20.9595C68 25.3931 68 35.123 68 38.5727C68 42.885 65.6006 51.2665 60.2832 56.2468C56.0292 60.231 50.167 64.1424 47.7677 65.6C45.6485 64.3126 40.8279 61.1109 36.8 57.6356" stroke="#EC6608" stroke-width="3" stroke-linecap="round" stroke-linejoin="round"/>
<defs>
<clipPath id="clip0">
<rect width="50.4" height="49.6" fill="white" transform="translate(1.59998 15.2)"/>
</clipPath>
</defs>
</svg>
