<svg width="17" height="16" viewBox="0 0 17 16" fill="none" xmlns="http://www.w3.org/2000/svg">
<g clip-path="url(#clip0)">
<circle cx="8.5" cy="8" r="8" fill="#1D509F"/>
<path d="M8.275 10.38L9.19 9.99C8.935 9.795 8.785 9.495 8.785 9.255C8.785 7.785 11.695 7.59 11.695 5.325C11.695 4.035 10.585 3 8.755 3C7.33 3 6.22 3.6 5.5 4.53L6.25 5.34C6.805 4.605 7.51 4.11 8.635 4.11C9.82 4.11 10.405 4.755 10.405 5.505C10.405 7.095 7.69 7.26 7.69 9.165C7.69 9.615 7.87 10.035 8.275 10.38ZM8.59 13.305C9.04 13.305 9.415 12.93 9.415 12.48C9.415 12.03 9.04 11.655 8.59 11.655C8.14 11.655 7.765 12.03 7.765 12.48C7.765 12.93 8.14 13.305 8.59 13.305Z" fill="white"/>
</g>
<defs>
<clipPath id="clip0">
<rect width="16" height="16" fill="white" transform="translate(0.5)"/>
</clipPath>
</defs>
</svg>
