<svg width="60" height="60" viewBox="0 0 60 60" fill="none" xmlns="http://www.w3.org/2000/svg">
<path d="M30 6L30 55" stroke="#0AA6E0" stroke-width="3"/>
<rect x="54" y="6" width="49" height="48" transform="rotate(90 54 6)" stroke="#0AA6E0" stroke-width="3"/>
<path d="M9 11.6667L12 9M12 17L15 14.3333M9 15.6667L15 10.3333" stroke="#0AA6E0" stroke-width="2"/>
<path d="M33 10C33 9.44772 33.4477 9 34 9H35C35.5523 9 36 9.44772 36 10V11C36 11.5523 35.5523 12 35 12H34C33.4477 12 33 11.5523 33 11V10Z" fill="#EC6608"/>
<path d="M48 10C48 9.44772 48.4477 9 49 9H50C50.5523 9 51 9.44772 51 10V11C51 11.5523 50.5523 12 50 12H49C48.4477 12 48 11.5523 48 11V10Z" fill="#EC6608"/>
<path d="M38 10C38 9.44772 38.4477 9 39 9H40C40.5523 9 41 9.44772 41 10V11C41 11.5523 40.5523 12 40 12H39C38.4477 12 38 11.5523 38 11V10Z" fill="#EC6608"/>
<path d="M43 10C43 9.44772 43.4477 9 44 9H45C45.5523 9 46 9.44772 46 10V11C46 11.5523 45.5523 12 45 12H44C43.4477 12 43 11.5523 43 11V10Z" fill="#EC6608"/>
<path d="M33 15C33 14.4477 33.4477 14 34 14H35C35.5523 14 36 14.4477 36 15V16C36 16.5523 35.5523 17 35 17H34C33.4477 17 33 16.5523 33 16V15Z" fill="#EC6608"/>
<path d="M48 15C48 14.4477 48.4477 14 49 14H50C50.5523 14 51 14.4477 51 15V16C51 16.5523 50.5523 17 50 17H49C48.4477 17 48 16.5523 48 16V15Z" fill="#EC6608"/>
<path d="M38 15C38 14.4477 38.4477 14 39 14H40C40.5523 14 41 14.4477 41 15V16C41 16.5523 40.5523 17 40 17H39C38.4477 17 38 16.5523 38 16V15Z" fill="#EC6608"/>
<path d="M43 15C43 14.4477 43.4477 14 44 14H45C45.5523 14 46 14.4477 46 15V16C46 16.5523 45.5523 17 45 17H44C43.4477 17 43 16.5523 43 16V15Z" fill="#EC6608"/>
<path d="M33 20C33 19.4477 33.4477 19 34 19H35C35.5523 19 36 19.4477 36 20V21C36 21.5523 35.5523 22 35 22H34C33.4477 22 33 21.5523 33 21V20Z" fill="#EC6608"/>
<path d="M48 20C48 19.4477 48.4477 19 49 19H50C50.5523 19 51 19.4477 51 20V21C51 21.5523 50.5523 22 50 22H49C48.4477 22 48 21.5523 48 21V20Z" fill="#EC6608"/>
<path d="M38 20C38 19.4477 38.4477 19 39 19H40C40.5523 19 41 19.4477 41 20V21C41 21.5523 40.5523 22 40 22H39C38.4477 22 38 21.5523 38 21V20Z" fill="#EC6608"/>
<path d="M43 20C43 19.4477 43.4477 19 44 19H45C45.5523 19 46 19.4477 46 20V21C46 21.5523 45.5523 22 45 22H44C43.4477 22 43 21.5523 43 21V20Z" fill="#EC6608"/>
<path d="M33 25C33 24.4477 33.4477 24 34 24H35C35.5523 24 36 24.4477 36 25V26C36 26.5523 35.5523 27 35 27H34C33.4477 27 33 26.5523 33 26V25Z" fill="#EC6608"/>
<path d="M48 25C48 24.4477 48.4477 24 49 24H50C50.5523 24 51 24.4477 51 25V26C51 26.5523 50.5523 27 50 27H49C48.4477 27 48 26.5523 48 26V25Z" fill="#EC6608"/>
<path d="M38 25C38 24.4477 38.4477 24 39 24H40C40.5523 24 41 24.4477 41 25V26C41 26.5523 40.5523 27 40 27H39C38.4477 27 38 26.5523 38 26V25Z" fill="#EC6608"/>
<path d="M43 25C43 24.4477 43.4477 24 44 24H45C45.5523 24 46 24.4477 46 25V26C46 26.5523 45.5523 27 45 27H44C43.4477 27 43 26.5523 43 26V25Z" fill="#EC6608"/>
<path d="M33 30C33 29.4477 33.4477 29 34 29H35C35.5523 29 36 29.4477 36 30V31C36 31.5523 35.5523 32 35 32H34C33.4477 32 33 31.5523 33 31V30Z" fill="#EC6608"/>
<path d="M48 30C48 29.4477 48.4477 29 49 29H50C50.5523 29 51 29.4477 51 30V31C51 31.5523 50.5523 32 50 32H49C48.4477 32 48 31.5523 48 31V30Z" fill="#EC6608"/>
<path d="M38 30C38 29.4477 38.4477 29 39 29H40C40.5523 29 41 29.4477 41 30V31C41 31.5523 40.5523 32 40 32H39C38.4477 32 38 31.5523 38 31V30Z" fill="#EC6608"/>
<path d="M43 30C43 29.4477 43.4477 29 44 29H45C45.5523 29 46 29.4477 46 30V31C46 31.5523 45.5523 32 45 32H44C43.4477 32 43 31.5523 43 31V30Z" fill="#EC6608"/>
<path d="M33 35C33 34.4477 33.4477 34 34 34H35C35.5523 34 36 34.4477 36 35V36C36 36.5523 35.5523 37 35 37H34C33.4477 37 33 36.5523 33 36V35Z" fill="#EC6608"/>
<path d="M48 35C48 34.4477 48.4477 34 49 34H50C50.5523 34 51 34.4477 51 35V36C51 36.5523 50.5523 37 50 37H49C48.4477 37 48 36.5523 48 36V35Z" fill="#EC6608"/>
<path d="M38 35C38 34.4477 38.4477 34 39 34H40C40.5523 34 41 34.4477 41 35V36C41 36.5523 40.5523 37 40 37H39C38.4477 37 38 36.5523 38 36V35Z" fill="#EC6608"/>
<path d="M43 35C43 34.4477 43.4477 34 44 34H45C45.5523 34 46 34.4477 46 35V36C46 36.5523 45.5523 37 45 37H44C43.4477 37 43 36.5523 43 36V35Z" fill="#EC6608"/>
<path d="M33 40C33 39.4477 33.4477 39 34 39H35C35.5523 39 36 39.4477 36 40V41C36 41.5523 35.5523 42 35 42H34C33.4477 42 33 41.5523 33 41V40Z" fill="#EC6608"/>
<path d="M48 40C48 39.4477 48.4477 39 49 39H50C50.5523 39 51 39.4477 51 40V41C51 41.5523 50.5523 42 50 42H49C48.4477 42 48 41.5523 48 41V40Z" fill="#EC6608"/>
<path d="M38 40C38 39.4477 38.4477 39 39 39H40C40.5523 39 41 39.4477 41 40V41C41 41.5523 40.5523 42 40 42H39C38.4477 42 38 41.5523 38 41V40Z" fill="#EC6608"/>
<path d="M43 40C43 39.4477 43.4477 39 44 39H45C45.5523 39 46 39.4477 46 40V41C46 41.5523 45.5523 42 45 42H44C43.4477 42 43 41.5523 43 41V40Z" fill="#EC6608"/>
<path d="M33 45C33 44.4477 33.4477 44 34 44H35C35.5523 44 36 44.4477 36 45V46C36 46.5523 35.5523 47 35 47H34C33.4477 47 33 46.5523 33 46V45Z" fill="#EC6608"/>
<path d="M48 45C48 44.4477 48.4477 44 49 44H50C50.5523 44 51 44.4477 51 45V46C51 46.5523 50.5523 47 50 47H49C48.4477 47 48 46.5523 48 46V45Z" fill="#EC6608"/>
<path d="M38 45C38 44.4477 38.4477 44 39 44H40C40.5523 44 41 44.4477 41 45V46C41 46.5523 40.5523 47 40 47H39C38.4477 47 38 46.5523 38 46V45Z" fill="#EC6608"/>
<path d="M43 45C43 44.4477 43.4477 44 44 44H45C45.5523 44 46 44.4477 46 45V46C46 46.5523 45.5523 47 45 47H44C43.4477 47 43 46.5523 43 46V45Z" fill="#EC6608"/>
<path d="M33 50C33 49.4477 33.4477 49 34 49H35C35.5523 49 36 49.4477 36 50V51C36 51.5523 35.5523 52 35 52H34C33.4477 52 33 51.5523 33 51V50Z" fill="#EC6608"/>
<path d="M48 50C48 49.4477 48.4477 49 49 49H50C50.5523 49 51 49.4477 51 50V51C51 51.5523 50.5523 52 50 52H49C48.4477 52 48 51.5523 48 51V50Z" fill="#EC6608"/>
<path d="M38 50C38 49.4477 38.4477 49 39 49H40C40.5523 49 41 49.4477 41 50V51C41 51.5523 40.5523 52 40 52H39C38.4477 52 38 51.5523 38 51V50Z" fill="#EC6608"/>
<path d="M43 50C43 49.4477 43.4477 49 44 49H45C45.5523 49 46 49.4477 46 50V51C46 51.5523 45.5523 52 45 52H44C43.4477 52 43 51.5523 43 51V50Z" fill="#EC6608"/>
</svg>
